<?xml version="1.0" encoding="UTF-8" standalone="no"?>
<svg
   xmlns:dc="http://purl.org/dc/elements/1.1/"
   xmlns:cc="http://creativecommons.org/ns#"
   xmlns:rdf="http://www.w3.org/1999/02/22-rdf-syntax-ns#"
   xmlns:svg="http://www.w3.org/2000/svg"
   xmlns="http://www.w3.org/2000/svg"
   xmlns:xlink="http://www.w3.org/1999/xlink"
   xmlns:sodipodi="http://sodipodi.sourceforge.net/DTD/sodipodi-0.dtd"
   xmlns:inkscape="http://www.inkscape.org/namespaces/inkscape"
   width="128"
   height="128"
   id="svg2"
   version="1.1"
   inkscape:version="0.91 r13725"
   sodipodi:docname="leaflet.svg">
  <metadata
     id="metadata122">
    <rdf:RDF>
      <cc:Work
         rdf:about="">
        <dc:format>image/svg+xml</dc:format>
        <dc:type
           rdf:resource="http://purl.org/dc/dcmitype/StillImage" />
        <dc:title />
      </cc:Work>
    </rdf:RDF>
  </metadata>
  <sodipodi:namedview
     pagecolor="#ffffff"
     bordercolor="#666666"
     borderopacity="1"
     objecttolerance="10"
     gridtolerance="10"
     guidetolerance="10"
     inkscape:pageopacity="0"
     inkscape:pageshadow="2"
     inkscape:window-width="1237"
     inkscape:window-height="872"
     id="namedview120"
     showgrid="false"
     fit-margin-top="0"
     fit-margin-left="0"
     fit-margin-right="0"
     fit-margin-bottom="0"
     inkscape:zoom="3.5600469"
     inkscape:cx="40.451218"
     inkscape:cy="47.146843"
     inkscape:window-x="0"
     inkscape:window-y="0"
     inkscape:window-maximized="0"
     inkscape:current-layer="svg2" />
  <linearGradient
     id="a"
     gradientUnits="userSpaceOnUse"
     x1="1603.924"
     y1="1483.083"
     x2="1698.0341"
     y2="1483.083"
     gradientTransform="matrix(0.986,0.168,-0.168,0.986,-102.747,-206.353)">
    <stop
       offset="0"
       stop-color="#89C442"
       id="stop9" />
    <stop
       offset="1"
       stop-color="#74B844"
       id="stop11" />
  </linearGradient>
  <linearGradient
     id="b"
     gradientUnits="userSpaceOnUse"
     x1="1606.047"
     y1="1478.166"
     x2="1687.254"
     y2="1478.166"
     gradientTransform="matrix(0.986,0.168,-0.168,0.986,-102.747,-206.353)">
    <stop
       offset="0"
       stop-color="#74B844"
       id="stop16" />
    <stop
       offset="1"
       stop-color="#4A9634"
       id="stop18" />
  </linearGradient>
  <linearGradient
     id="c"
     gradientUnits="userSpaceOnUse"
     x1="1280.9659"
     y1="1562.8311"
     x2="1438.704"
     y2="1562.8311"
     gradientTransform="matrix(-0.948,0.318,0.318,0.948,2154.282,-427.134)">
    <stop
       offset="0"
       stop-color="#C1EA71"
       id="stop25" />
    <stop
       offset="1"
       stop-color="#ACDA55"
       id="stop27" />
  </linearGradient>
  <linearGradient
     id="d"
     gradientUnits="userSpaceOnUse"
     x1="1284.556"
     y1="1554.3979"
     x2="1422.002"
     y2="1554.3979"
     gradientTransform="matrix(-0.948,0.318,0.318,0.948,2154.282,-427.134)">
    <stop
       offset="0"
       stop-color="#ACDA55"
       id="stop32" />
    <stop
       offset="1"
       stop-color="#89C442"
       id="stop34" />
  </linearGradient>
  <linearGradient
     id="e"
     gradientUnits="userSpaceOnUse"
     x1="1182.1121"
     y1="576.98999"
     x2="1189.046"
     y2="576.98999"
     gradientTransform="matrix(0.986,0.168,-0.168,0.986,-102.747,-206.353)">
    <stop
       offset="0"
       stop-color="#89C442"
       id="stop41" />
    <stop
       offset="1"
       stop-color="#74B844"
       id="stop43" />
  </linearGradient>
  <linearGradient
     id="f"
     gradientUnits="userSpaceOnUse"
     x1="1182.27"
     y1="576.62799"
     x2="1188.252"
     y2="576.62799"
     gradientTransform="matrix(0.986,0.168,-0.168,0.986,-102.747,-206.353)">
    <stop
       offset="0"
       stop-color="#74B844"
       id="stop48" />
    <stop
       offset="1"
       stop-color="#4A9634"
       id="stop50" />
  </linearGradient>
  <linearGradient
     id="g"
     gradientUnits="userSpaceOnUse"
     x1="1425.042"
     y1="559.62"
     x2="1436.663"
     y2="559.62"
     gradientTransform="matrix(-0.948,0.318,0.318,0.948,2154.282,-427.134)">
    <stop
       offset="0"
       stop-color="#C1EA71"
       id="stop55" />
    <stop
       offset="1"
       stop-color="#ACDA55"
       id="stop57" />
  </linearGradient>
  <linearGradient
     id="h"
     gradientUnits="userSpaceOnUse"
     x1="1425.307"
     y1="558.99902"
     x2="1435.433"
     y2="558.99902"
     gradientTransform="matrix(-0.948,0.318,0.318,0.948,2154.282,-427.134)">
    <stop
       offset="0"
       stop-color="#ACDA55"
       id="stop62" />
    <stop
       offset="1"
       stop-color="#89C442"
       id="stop64" />
  </linearGradient>
  <linearGradient
     id="i"
     gradientUnits="userSpaceOnUse"
     x1="1409.067"
     y1="565.30103"
     x2="1421.354"
     y2="565.30103"
     gradientTransform="matrix(-0.948,0.318,0.318,0.948,2154.282,-427.134)">
    <stop
       offset="0"
       stop-color="#C1EA71"
       id="stop69" />
    <stop
       offset="1"
       stop-color="#ACDA55"
       id="stop71" />
  </linearGradient>
  <linearGradient
     id="j"
     gradientUnits="userSpaceOnUse"
     x1="1418.7841"
     y1="563.802"
     x2="1410.712"
     y2="565.448"
     gradientTransform="matrix(-0.948,0.318,0.318,0.948,2154.282,-427.134)">
    <stop
       offset="0"
       stop-color="#74B844"
       id="stop76" />
    <stop
       offset="1"
       stop-color="#74B844"
       id="stop78" />
  </linearGradient>
  <defs
     id="defs82">
    <rect
       id="k"
       x="920.81299"
       y="774"
       width="128"
       height="128" />
  </defs>
  <clipPath
     id="l">
    <use
       xlink:href="#k"
       overflow="visible"
       id="use86"
       style="overflow:visible"
       x="0"
       y="0"
       width="100%"
       height="100%" />
  </clipPath>
  <g
     clip-path="url(#l)"
     id="g88"
     transform="translate(-920.81299,-774)">
    <linearGradient
       id="m"
       gradientUnits="userSpaceOnUse"
       x1="1197.8979"
       y1="881.26703"
       x2="1247.528"
       y2="881.26703"
       gradientTransform="matrix(0.986,0.168,-0.168,0.986,-102.747,-206.353)">
      <stop
         offset="0"
         stop-color="#89C442"
         id="stop91" />
      <stop
         offset="1"
         stop-color="#74B844"
         id="stop93" />
    </linearGradient>
    <path
       d="m 934.865,835.836 c 1.178,1.375 24.31,9.081 32.353,18.443 8.042,9.363 11.553,17.718 10.417,25.752 -1.134,8.034 -6.048,7.902 -8.191,10.827 -2.146,2.926 -5.11,6.534 -10.803,6.15 -7.456,-0.501 -15.146,-4.227 -20.698,-17.161 -5.553,-12.935 -5.126,-25.086 -4.683,-31.828 0.445,-6.739 1.605,-12.183 1.605,-12.183 z"
       id="path95"
       inkscape:connector-curvature="0"
       style="fill:url(#m)" />
    <linearGradient
       id="n"
       gradientUnits="userSpaceOnUse"
       x1="1199.0179"
       y1="878.67401"
       x2="1241.845"
       y2="878.67401"
       gradientTransform="matrix(0.986,0.168,-0.168,0.986,-102.747,-206.353)">
      <stop
         offset="0"
         stop-color="#74B844"
         id="stop98" />
      <stop
         offset="1"
         stop-color="#4A9634"
         id="stop100" />
    </linearGradient>
    <polygon
       points="935.586,838.055 970.229,889.7 968.632,891.484 "
       id="polygon102"
       style="fill:url(#n)" />
    <path
       d="m 802.813,909.836 0.326,-2.287 c 9.24,-4.923 20.75,-6.82 30.116,-11.573 2.81,1.264 4.059,-0.56 7.056,-0.394 1.088,0.982 -1.367,2.292 1.569,2.091 6.674,0.883 13.17,-0.357 19.73,-0.921 6.918,-0.594 13.793,0.068 20.58,-0.332 2.171,-0.129 5.509,-3.128 8.167,-1.637 1.203,2.176 -3.919,2.366 -2.545,4.77 13.584,3.193 47.566,16.708 53.378,2.009 0.079,0.894 -1.015,2.668 0.589,2.417 11.458,-5.129 30.921,-16.196 34.349,-19.097 3.768,-3.188 8.79,-3.087 13.711,-4.219 8.875,-2.04 18.337,-4.122 26.019,-8.59 4.747,3.295 14.682,4.937 19.993,3.783 5.546,-1.205 14.146,-10.405 18.747,-13.661 1.809,-1.279 4.461,-3.762 6.402,-2.353 -1.306,0.897 0.234,3.52 -1.371,3.071 -0.838,-1.603 -2.506,0.246 -3.725,-0.064 -4.634,3.801 -9.451,7.361 -14.174,11.046 -2.203,1.35 2.129,2.754 -0.457,3.201 -12.203,2.424 -30.787,-3.652 -38.48,4.78 -12.188,4.169 -23.719,5.229 -35.734,11.707 -6.902,3.722 -15.35,10.494 -22.536,14.054 -1.217,0.604 -3.003,0.817 -4.442,1.7 -1.752,1.076 -2.181,2.427 -3.658,2.747 -3.681,0.792 -11.287,-1.13 -16.073,-1.825 -15.969,-2.322 -33.021,-8.831 -48.089,-9.655 -5.958,-0.326 -12.994,0.618 -19.73,0.921 -14.319,0.644 -23.275,0.986 -34.757,4.845 -4.695,1.577 -11.917,5.763 -14.961,3.466 z"
       id="path104"
       inkscape:connector-curvature="0"
       style="clip-rule:evenodd;fill:#6f6f6e;fill-rule:evenodd" />
    <linearGradient
       id="o"
       gradientUnits="userSpaceOnUse"
       x1="1456.7061"
       y1="837.85999"
       x2="1539.894"
       y2="837.85999"
       gradientTransform="matrix(-0.948,0.318,0.318,0.948,2154.282,-427.134)">
      <stop
         offset="0"
         stop-color="#C1EA71"
         id="stop107" />
      <stop
         offset="1"
         stop-color="#ACDA55"
         id="stop109" />
    </linearGradient>
    <path
       d="m 1024.066,785 c -1.608,2.607 -38.287,21.521 -49.296,39.275 -11.008,17.754 -14.148,31.734 -10.157,44.874 3.991,13.14 11.619,12.548 15.967,16.88 4.349,4.334 10.248,9.594 19.67,7.471 12.339,-2.781 24.229,-11.018 30.143,-34.095 5.914,-23.079 2.036,-43.289 -0.463,-54.447 C 1027.43,793.8 1024.066,785 1024.066,785 Z"
       id="path111"
       inkscape:connector-curvature="0"
       style="fill:url(#o)" />
    <linearGradient
       id="p"
       gradientUnits="userSpaceOnUse"
       x1="1458.601"
       y1="833.41302"
       x2="1531.085"
       y2="833.41302"
       gradientTransform="matrix(-0.948,0.318,0.318,0.948,2154.282,-427.134)">
      <stop
         offset="0"
         stop-color="#ACDA55"
         id="stop114" />
      <stop
         offset="1"
         stop-color="#89C442"
         id="stop116" />
    </linearGradient>
    <polygon
       points="1023.441,788.898 978.965,884.296 981.576,886.918 "
       id="polygon118"
       style="fill:url(#p)" />
  </g>
</svg>
